<mxfile host="app.diagrams.net" agent="Mozilla/5.0 (X11; Linux x86_64) AppleWebKit/537.36 (KHTML, like Gecko) Chrome/135.0.0.0 Safari/537.36" version="26.2.14">
  <diagram name="Page-1" id="ZOqgNiaAO1z2wB_B6C6n">
    <mxGraphModel dx="989" dy="1062" grid="0" gridSize="10" guides="1" tooltips="1" connect="1" arrows="1" fold="1" page="0" pageScale="1" pageWidth="850" pageHeight="1100" math="0" shadow="0">
      <root>
        <mxCell id="0" />
        <mxCell id="1" parent="0" />
        <mxCell id="qSmz735uNCWrjaY1Imk5-1" value="Proxmox" style="rounded=1;whiteSpace=wrap;html=1;" vertex="1" parent="1">
          <mxGeometry x="108" y="-21" width="120" height="60" as="geometry" />
        </mxCell>
        <mxCell id="qSmz735uNCWrjaY1Imk5-2" value="Truenas" style="rounded=1;whiteSpace=wrap;html=1;" vertex="1" parent="1">
          <mxGeometry x="-79" y="-16" width="120" height="60" as="geometry" />
        </mxCell>
        <mxCell id="qSmz735uNCWrjaY1Imk5-3" value="Switch" style="rounded=0;whiteSpace=wrap;html=1;" vertex="1" parent="1">
          <mxGeometry x="9" y="143" width="120" height="60" as="geometry" />
        </mxCell>
        <mxCell id="qSmz735uNCWrjaY1Imk5-4" value="" style="endArrow=classic;startArrow=classic;html=1;rounded=0;fontSize=12;startSize=8;endSize=8;curved=1;entryX=0.5;entryY=1;entryDx=0;entryDy=0;exitX=0.5;exitY=0;exitDx=0;exitDy=0;" edge="1" parent="1" source="qSmz735uNCWrjaY1Imk5-3" target="qSmz735uNCWrjaY1Imk5-2">
          <mxGeometry width="50" height="50" relative="1" as="geometry">
            <mxPoint x="-55" y="135" as="sourcePoint" />
            <mxPoint x="-5" y="85" as="targetPoint" />
          </mxGeometry>
        </mxCell>
        <mxCell id="qSmz735uNCWrjaY1Imk5-5" value="" style="endArrow=classic;startArrow=classic;html=1;rounded=0;fontSize=12;startSize=8;endSize=8;curved=1;entryX=0.5;entryY=1;entryDx=0;entryDy=0;exitX=0.75;exitY=0;exitDx=0;exitDy=0;" edge="1" parent="1" source="qSmz735uNCWrjaY1Imk5-3" target="qSmz735uNCWrjaY1Imk5-1">
          <mxGeometry width="50" height="50" relative="1" as="geometry">
            <mxPoint x="190" y="163" as="sourcePoint" />
            <mxPoint x="240" y="113" as="targetPoint" />
          </mxGeometry>
        </mxCell>
        <mxCell id="qSmz735uNCWrjaY1Imk5-6" value="pfSense" style="rounded=1;whiteSpace=wrap;html=1;" vertex="1" parent="1">
          <mxGeometry x="305" y="138" width="120" height="60" as="geometry" />
        </mxCell>
        <mxCell id="qSmz735uNCWrjaY1Imk5-7" value="Internet" style="ellipse;shape=cloud;whiteSpace=wrap;html=1;" vertex="1" parent="1">
          <mxGeometry x="372" y="276" width="120" height="80" as="geometry" />
        </mxCell>
        <mxCell id="qSmz735uNCWrjaY1Imk5-8" value="" style="endArrow=classic;startArrow=classic;html=1;rounded=0;fontSize=12;startSize=8;endSize=8;curved=1;entryX=0;entryY=0.5;entryDx=0;entryDy=0;exitX=1;exitY=0.5;exitDx=0;exitDy=0;" edge="1" parent="1" source="qSmz735uNCWrjaY1Imk5-3" target="qSmz735uNCWrjaY1Imk5-6">
          <mxGeometry width="50" height="50" relative="1" as="geometry">
            <mxPoint x="162" y="275" as="sourcePoint" />
            <mxPoint x="212" y="225" as="targetPoint" />
          </mxGeometry>
        </mxCell>
        <mxCell id="qSmz735uNCWrjaY1Imk5-9" value="" style="endArrow=classic;startArrow=classic;html=1;rounded=0;fontSize=12;startSize=8;endSize=8;curved=1;entryX=0.4;entryY=0.1;entryDx=0;entryDy=0;entryPerimeter=0;exitX=0.5;exitY=1;exitDx=0;exitDy=0;" edge="1" parent="1" source="qSmz735uNCWrjaY1Imk5-6" target="qSmz735uNCWrjaY1Imk5-7">
          <mxGeometry width="50" height="50" relative="1" as="geometry">
            <mxPoint x="242" y="324" as="sourcePoint" />
            <mxPoint x="292" y="274" as="targetPoint" />
          </mxGeometry>
        </mxCell>
        <mxCell id="qSmz735uNCWrjaY1Imk5-10" value="VM - docker-01" style="swimlane;whiteSpace=wrap;html=1;startSize=23;" vertex="1" parent="1">
          <mxGeometry x="286" y="-130" width="200" height="200" as="geometry" />
        </mxCell>
        <mxCell id="qSmz735uNCWrjaY1Imk5-12" value="portainer" style="whiteSpace=wrap;html=1;" vertex="1" parent="qSmz735uNCWrjaY1Imk5-10">
          <mxGeometry x="40" y="40" width="120" height="29" as="geometry" />
        </mxCell>
        <mxCell id="qSmz735uNCWrjaY1Imk5-13" value="mariaDB" style="whiteSpace=wrap;html=1;" vertex="1" parent="1">
          <mxGeometry x="329" y="-44" width="120" height="31" as="geometry" />
        </mxCell>
        <mxCell id="qSmz735uNCWrjaY1Imk5-14" value="" style="shape=flexArrow;endArrow=classic;startArrow=classic;html=1;rounded=0;fontSize=12;startSize=8;endSize=8;curved=1;entryX=0;entryY=0.5;entryDx=0;entryDy=0;exitX=0.996;exitY=0.175;exitDx=0;exitDy=0;exitPerimeter=0;" edge="1" parent="1" source="qSmz735uNCWrjaY1Imk5-1" target="qSmz735uNCWrjaY1Imk5-10">
          <mxGeometry width="100" height="100" relative="1" as="geometry">
            <mxPoint x="162" y="-53" as="sourcePoint" />
            <mxPoint x="262" y="-153" as="targetPoint" />
          </mxGeometry>
        </mxCell>
        <mxCell id="qSmz735uNCWrjaY1Imk5-15" value="LXC - open-webui" style="swimlane;whiteSpace=wrap;html=1;" vertex="1" parent="1">
          <mxGeometry x="284" y="-400" width="200" height="200" as="geometry" />
        </mxCell>
        <mxCell id="qSmz735uNCWrjaY1Imk5-16" value="open webui" style="whiteSpace=wrap;html=1;" vertex="1" parent="1">
          <mxGeometry x="306" y="-368" width="120" height="60" as="geometry" />
        </mxCell>
        <mxCell id="qSmz735uNCWrjaY1Imk5-17" value="ollama" style="whiteSpace=wrap;html=1;" vertex="1" parent="1">
          <mxGeometry x="307" y="-283" width="120" height="60" as="geometry" />
        </mxCell>
        <mxCell id="qSmz735uNCWrjaY1Imk5-18" value="" style="shape=flexArrow;endArrow=classic;startArrow=classic;html=1;rounded=0;fontSize=12;startSize=8;endSize=8;curved=1;entryX=0;entryY=0.5;entryDx=0;entryDy=0;exitX=0.75;exitY=0;exitDx=0;exitDy=0;" edge="1" parent="1" source="qSmz735uNCWrjaY1Imk5-1" target="qSmz735uNCWrjaY1Imk5-15">
          <mxGeometry width="100" height="100" relative="1" as="geometry">
            <mxPoint x="196" y="-78" as="sourcePoint" />
            <mxPoint x="232" y="-287" as="targetPoint" />
          </mxGeometry>
        </mxCell>
        <mxCell id="qSmz735uNCWrjaY1Imk5-19" value="lxc - prox-backup-server" style="swimlane;whiteSpace=wrap;html=1;" vertex="1" parent="1">
          <mxGeometry x="-186" y="-315" width="200" height="200" as="geometry" />
        </mxCell>
        <mxCell id="qSmz735uNCWrjaY1Imk5-20" value="proxmox backup server" style="whiteSpace=wrap;html=1;" vertex="1" parent="1">
          <mxGeometry x="-136" y="-263" width="120" height="60" as="geometry" />
        </mxCell>
        <mxCell id="qSmz735uNCWrjaY1Imk5-21" value="" style="shape=flexArrow;endArrow=classic;startArrow=classic;html=1;rounded=0;fontSize=12;startSize=8;endSize=8;curved=1;entryX=0.75;entryY=1;entryDx=0;entryDy=0;exitX=0.5;exitY=0;exitDx=0;exitDy=0;" edge="1" parent="1" source="qSmz735uNCWrjaY1Imk5-2" target="qSmz735uNCWrjaY1Imk5-19">
          <mxGeometry width="100" height="100" relative="1" as="geometry">
            <mxPoint x="-249" y="10" as="sourcePoint" />
            <mxPoint x="-149" y="-90" as="targetPoint" />
          </mxGeometry>
        </mxCell>
        <mxCell id="qSmz735uNCWrjaY1Imk5-22" value="NAS shares" style="shape=internalStorage;whiteSpace=wrap;html=1;backgroundOutline=1;" vertex="1" parent="1">
          <mxGeometry x="-342" y="12" width="156" height="103" as="geometry" />
        </mxCell>
        <mxCell id="qSmz735uNCWrjaY1Imk5-23" value="" style="shape=flexArrow;endArrow=classic;html=1;rounded=0;fontSize=12;startSize=8;endSize=8;curved=1;exitX=1;exitY=0.25;exitDx=0;exitDy=0;entryX=0;entryY=0.5;entryDx=0;entryDy=0;" edge="1" parent="1" source="qSmz735uNCWrjaY1Imk5-22" target="qSmz735uNCWrjaY1Imk5-2">
          <mxGeometry width="50" height="50" relative="1" as="geometry">
            <mxPoint x="-152" y="-2" as="sourcePoint" />
            <mxPoint x="-102" y="-52" as="targetPoint" />
          </mxGeometry>
        </mxCell>
      </root>
    </mxGraphModel>
  </diagram>
</mxfile>
